<svg width="128" height="128" viewBox="0 0 128 128" fill="none" xmlns="http://www.w3.org/2000/svg">
<path d="M21 94H99V111H21V94Z" fill="#F4F4F4"/>
<path d="M43 89.5C43 101.374 33.3741 111 21.5 111C9.62588 111 0 101.374 0 89.5C0 77.6259 9.62588 68 21.5 68C33.3741 68 43 77.6259 43 89.5Z" fill="#F4F4F4"/>
<path d="M92 74.5C92 94.6584 75.6584 111 55.5 111C35.3416 111 19 94.6584 19 74.5C19 54.3416 35.3416 38 55.5 38C75.6584 38 92 54.3416 92 74.5Z" fill="#F4F4F4"/>
<path d="M128 81C128 97.5685 114.569 111 98 111C81.4315 111 68 97.5685 68 81C68 64.4315 81.4315 51 98 51C114.569 51 128 64.4315 128 81Z" fill="#F4F4F4"/>
<path fill-rule="evenodd" clip-rule="evenodd" d="M94.1398 28.2716C88.8882 20.8558 80.1361 16 70.2266 16C56.8432 16 45.571 24.857 42.1819 36.9154C46.5782 35.0387 51.4178 34 56.5 34C68.9355 34 79.9185 40.2188 86.5087 49.7162C90.3118 47.9722 94.5424 47 99 47C109.891 47 119.427 52.8036 124.683 61.4868C126.79 57.9967 128 53.9245 128 49.5753C128 36.6383 117.297 26.1507 104.094 26.1507C100.542 26.1507 97.1703 26.9098 94.1398 28.2716ZM30.3297 45.0566C30.8335 44.5385 31.3525 44.0354 31.886 43.5478C31.3352 44.0179 30.8153 44.522 30.3297 45.0566Z" fill="#F4F4F4"/>
</svg>
