<svg width="128" height="128" viewBox="0 0 128 128" fill="none" xmlns="http://www.w3.org/2000/svg">
<g clip-path="url(#clip0)">
<path d="M76.3714 122.095C76.1858 123.883 69.8006 124.158 62.1097 122.71C54.4188 121.262 48.3345 118.638 48.5201 116.85" stroke="#F4F4F4" stroke-width="8" stroke-linecap="round"/>
<path d="M89.3307 104.293C89.1091 107.519 79.1584 108.946 67.1054 107.48C55.0523 106.013 45.461 102.21 45.6826 98.9836" stroke="#F4F4F4" stroke-width="8" stroke-linecap="round"/>
<path d="M106.034 83.5448C105.782 88.9432 91.2349 92.8443 73.5424 92.2582C55.8499 91.6722 41.7118 86.8208 41.964 81.4224" stroke="#F4F4F4" stroke-width="8" stroke-linecap="round"/>
<path d="M119.012 52.7901C119.965 58.6106 102.317 66.1301 79.5922 69.5852C56.8677 73.0404 37.6728 71.1229 36.7192 65.3024" stroke="#F4F4F4" stroke-width="8" stroke-linecap="round"/>
<path d="M123.951 27.284C125.028 36.3983 102.85 47.6978 74.416 52.522C45.9817 57.3463 22.0581 53.8685 20.9813 44.7541" stroke="#F4F4F4" stroke-width="8" stroke-linecap="round"/>
<path d="M123.994 11.0329C124.02 11.229 123.968 12.4588 121.256 14.7099C118.73 16.8074 114.704 19.0775 109.294 21.3117C98.5316 25.7569 83.1497 29.7127 65.7293 32.0261C48.3088 34.3394 32.4277 34.5352 20.8781 33.053C15.0731 32.308 10.5944 31.1672 7.60796 29.8019C4.40269 28.3366 4.03176 27.163 4.00574 26.9671C3.97971 26.771 4.03166 25.5412 6.74357 23.2901C9.27033 21.1926 13.2962 18.9225 18.7057 16.6883C29.4684 12.2431 44.8503 8.28729 62.2707 5.97395C79.6912 3.6606 95.5723 3.46481 107.122 4.94703C112.927 5.69201 117.406 6.83277 120.392 8.19807C123.597 9.66342 123.968 10.837 123.994 11.0329Z" stroke="#F4F4F4" stroke-width="8" stroke-linecap="round"/>
</g>
<defs>
<clipPath id="clip0">
<rect width="128" height="128" fill="white"/>
</clipPath>
</defs>
</svg>
