<svg width="128" height="128" viewBox="0 0 128 128" fill="none" xmlns="http://www.w3.org/2000/svg">
<rect x="21" y="56" width="78" height="17" fill="#F4F4F4"/>
<circle cx="21.5" cy="51.5" r="21.5" fill="#F4F4F4"/>
<circle cx="55.5" cy="36.5" r="36.5" fill="#F4F4F4"/>
<circle cx="98" cy="43" r="30" fill="#F4F4F4"/>
<path d="M56 105L72.5 121.5" stroke="#F4F4F4" stroke-width="4" stroke-linecap="round"/>
<path d="M56 105L72.5 121.5" stroke="#F4F4F4" stroke-width="4" stroke-linecap="round"/>
<path d="M64.25 101.583V124.917" stroke="#F4F4F4" stroke-width="4" stroke-linecap="round"/>
<path d="M72.5 105.417L56 121.917" stroke="#F4F4F4" stroke-width="4" stroke-linecap="round"/>
<path d="M76.3345 112.667H53" stroke="#F4F4F4" stroke-width="4" stroke-linecap="round"/>
<path d="M86 83L102.5 99.5" stroke="#F4F4F4" stroke-width="4" stroke-linecap="round"/>
<path d="M86 83L102.5 99.5" stroke="#F4F4F4" stroke-width="4" stroke-linecap="round"/>
<path d="M94.25 79.5827V102.917" stroke="#F4F4F4" stroke-width="4" stroke-linecap="round"/>
<path d="M102.5 83.4173L86 99.9173" stroke="#F4F4F4" stroke-width="4" stroke-linecap="round"/>
<path d="M106.335 90.6673H83" stroke="#F4F4F4" stroke-width="4" stroke-linecap="round"/>
<path d="M25 83L41.5 99.5" stroke="#F4F4F4" stroke-width="4" stroke-linecap="round"/>
<path d="M25 83L41.5 99.5" stroke="#F4F4F4" stroke-width="4" stroke-linecap="round"/>
<path d="M33.25 79.5827V102.917" stroke="#F4F4F4" stroke-width="4" stroke-linecap="round"/>
<path d="M41.5 83.4173L25 99.9173" stroke="#F4F4F4" stroke-width="4" stroke-linecap="round"/>
<path d="M45.3345 90.6673H22" stroke="#F4F4F4" stroke-width="4" stroke-linecap="round"/>
</svg>
