<svg width="128" height="128" viewBox="0 0 128 128" fill="none" xmlns="http://www.w3.org/2000/svg">
<path d="M41 104.111C41 104.111 33.4445 104.556 33.4445 96.5556C33.4445 93.8889 34.6403 91.1756 36.5556 88.1111L41 81.4444V104.111Z" fill="#F4F4F4"/>
<path d="M41 104.111C41 104.111 48.5556 104.556 48.5556 96.5556C48.5556 93.8889 47.3598 91.1756 45.4445 88.1111L41 81.4444V104.111Z" fill="#F4F4F4"/>
<path d="M41 81.4444L41.416 81.1671C41.3233 81.028 41.1672 80.9444 41 80.9444C40.8328 80.9444 40.6767 81.028 40.584 81.1671L41 81.4444ZM36.5556 88.1111L36.1395 87.8338L36.1355 87.8399L36.1316 87.8461L36.5556 88.1111ZM45.4445 88.1111L45.8685 87.8461L45.8646 87.8399L45.8605 87.8338L45.4445 88.1111ZM32.9445 96.5556C32.9445 98.6369 33.437 100.208 34.2065 101.385C34.9752 102.56 35.9988 103.31 37.0093 103.786C38.0168 104.26 39.0174 104.465 39.761 104.552C40.1342 104.596 40.4462 104.611 40.667 104.615C40.7774 104.616 40.8653 104.615 40.9269 104.614C40.9577 104.613 40.982 104.612 40.9992 104.612C41.0078 104.611 41.0147 104.611 41.0197 104.611C41.0222 104.611 41.0243 104.611 41.0259 104.61C41.0267 104.61 41.0274 104.61 41.028 104.61C41.0283 104.61 41.0286 104.61 41.0288 104.61C41.0291 104.61 41.0294 104.61 41 104.111C40.9707 103.612 40.9709 103.612 40.9711 103.612C40.9711 103.612 40.9713 103.612 40.9713 103.612C40.9715 103.612 40.9715 103.612 40.9713 103.612C40.9711 103.612 40.9705 103.612 40.9694 103.612C40.9671 103.612 40.9632 103.612 40.9575 103.613C40.9461 103.613 40.9279 103.614 40.9034 103.614C40.8543 103.615 40.7799 103.616 40.6838 103.615C40.4913 103.611 40.2131 103.598 39.8779 103.559C39.2049 103.48 38.3166 103.296 37.4351 102.881C36.5568 102.468 35.6915 101.829 35.0435 100.837C34.3964 99.8478 33.9445 98.4742 33.9445 96.5556H32.9445ZM40.584 81.1671L36.1395 87.8338L36.9716 88.3885L41.416 81.7218L40.584 81.1671ZM36.1316 87.8461C34.2044 90.9296 32.9445 93.7431 32.9445 96.5556H33.9445C33.9445 94.0347 35.0761 91.4216 36.9796 88.3761L36.1316 87.8461ZM41.5 104.111V81.4444H40.5V104.111H41.5ZM48.0556 96.5556C48.0556 98.4742 47.6036 99.8478 46.9565 100.837C46.3086 101.829 45.4432 102.468 44.5649 102.881C43.6834 103.296 42.7952 103.48 42.1221 103.559C41.7869 103.598 41.5087 103.611 41.3163 103.615C41.2201 103.616 41.1457 103.615 41.0966 103.614C41.0721 103.614 41.0539 103.613 41.0425 103.613C41.0369 103.612 41.0329 103.612 41.0307 103.612C41.0296 103.612 41.0289 103.612 41.0287 103.612C41.0286 103.612 41.0286 103.612 41.0287 103.612C41.0287 103.612 41.0289 103.612 41.0289 103.612C41.0291 103.612 41.0294 103.612 41 104.111C40.9707 104.61 40.9709 104.61 40.9713 104.61C40.9714 104.61 40.9717 104.61 40.972 104.61C40.9726 104.61 40.9733 104.61 40.9741 104.61C40.9757 104.611 40.9778 104.611 40.9803 104.611C40.9854 104.611 40.9922 104.611 41.0008 104.612C41.0181 104.612 41.0423 104.613 41.0731 104.614C41.1347 104.615 41.2226 104.616 41.3331 104.615C41.5538 104.611 41.8659 104.596 42.239 104.552C42.9826 104.465 43.9833 104.26 44.9907 103.786C46.0013 103.31 47.0248 102.56 47.7935 101.385C48.5631 100.208 49.0556 98.6369 49.0556 96.5556H48.0556ZM40.584 81.7218L45.0284 88.3885L45.8605 87.8338L41.416 81.1671L40.584 81.7218ZM45.0205 88.3761C46.9239 91.4216 48.0556 94.0347 48.0556 96.5556H49.0556C49.0556 93.7431 47.7957 90.9296 45.8685 87.8461L45.0205 88.3761Z" fill="#F4F4F4"/>
<path d="M87 104.111C87 104.111 79.4445 104.556 79.4445 96.5556C79.4445 93.8889 80.6403 91.1756 82.5556 88.1111L87 81.4444V104.111Z" fill="#F4F4F4"/>
<path d="M87 104.111C87 104.111 94.5556 104.556 94.5556 96.5556C94.5556 93.8889 93.3598 91.1756 91.4445 88.1111L87 81.4444V104.111Z" fill="#F4F4F4"/>
<path d="M87 81.4444L87.416 81.1671C87.3233 81.028 87.1672 80.9444 87 80.9444C86.8328 80.9444 86.6767 81.028 86.584 81.1671L87 81.4444ZM82.5556 88.1111L82.1395 87.8338L82.1355 87.8399L82.1316 87.8461L82.5556 88.1111ZM91.4445 88.1111L91.8685 87.8461L91.8646 87.8399L91.8605 87.8338L91.4445 88.1111ZM78.9445 96.5556C78.9445 98.6369 79.437 100.208 80.2065 101.385C80.9752 102.56 81.9988 103.31 83.0093 103.786C84.0168 104.26 85.0174 104.465 85.761 104.552C86.1342 104.596 86.4462 104.611 86.667 104.615C86.7774 104.616 86.8653 104.615 86.9269 104.614C86.9577 104.613 86.982 104.612 86.9992 104.612C87.0078 104.611 87.0147 104.611 87.0197 104.611C87.0222 104.611 87.0243 104.611 87.0259 104.61C87.0267 104.61 87.0274 104.61 87.028 104.61C87.0283 104.61 87.0286 104.61 87.0288 104.61C87.0291 104.61 87.0294 104.61 87 104.111C86.9707 103.612 86.9709 103.612 86.9711 103.612C86.9711 103.612 86.9713 103.612 86.9713 103.612C86.9715 103.612 86.9715 103.612 86.9713 103.612C86.9711 103.612 86.9705 103.612 86.9694 103.612C86.9671 103.612 86.9632 103.612 86.9575 103.613C86.9461 103.613 86.9279 103.614 86.9034 103.614C86.8543 103.615 86.7799 103.616 86.6838 103.615C86.4913 103.611 86.2131 103.598 85.8779 103.559C85.2049 103.48 84.3166 103.296 83.4351 102.881C82.5568 102.468 81.6915 101.829 81.0435 100.837C80.3964 99.8478 79.9445 98.4742 79.9445 96.5556H78.9445ZM86.584 81.1671L82.1395 87.8338L82.9716 88.3885L87.416 81.7218L86.584 81.1671ZM82.1316 87.8461C80.2044 90.9296 78.9445 93.7431 78.9445 96.5556H79.9445C79.9445 94.0347 81.0761 91.4216 82.9796 88.3761L82.1316 87.8461ZM87.5 104.111V81.4444H86.5V104.111H87.5ZM94.0556 96.5556C94.0556 98.4742 93.6036 99.8478 92.9565 100.837C92.3086 101.829 91.4432 102.468 90.5649 102.881C89.6834 103.296 88.7952 103.48 88.1221 103.559C87.7869 103.598 87.5087 103.611 87.3163 103.615C87.2201 103.616 87.1457 103.615 87.0966 103.614C87.0721 103.614 87.0539 103.613 87.0425 103.613C87.0369 103.612 87.0329 103.612 87.0307 103.612C87.0296 103.612 87.0289 103.612 87.0287 103.612C87.0286 103.612 87.0286 103.612 87.0287 103.612C87.0287 103.612 87.0289 103.612 87.0289 103.612C87.0291 103.612 87.0294 103.612 87 104.111C86.9707 104.61 86.9709 104.61 86.9713 104.61C86.9714 104.61 86.9717 104.61 86.972 104.61C86.9726 104.61 86.9733 104.61 86.9741 104.61C86.9757 104.611 86.9778 104.611 86.9803 104.611C86.9854 104.611 86.9922 104.611 87.0008 104.612C87.0181 104.612 87.0423 104.613 87.0731 104.614C87.1347 104.615 87.2226 104.616 87.3331 104.615C87.5538 104.611 87.8659 104.596 88.239 104.552C88.9826 104.465 89.9833 104.26 90.9907 103.786C92.0013 103.31 93.0248 102.56 93.7935 101.385C94.5631 100.208 95.0556 98.6369 95.0556 96.5556H94.0556ZM86.584 81.7218L91.0284 88.3885L91.8605 87.8338L87.416 81.1671L86.584 81.7218ZM91.0205 88.3761C92.9239 91.4216 94.0556 94.0347 94.0556 96.5556H95.0556C95.0556 93.7431 93.7957 90.9296 91.8685 87.8461L91.0205 88.3761Z" fill="#F4F4F4"/>
<path d="M65 127.111C65 127.111 57.4445 127.556 57.4445 119.556C57.4445 116.889 58.6403 114.176 60.5556 111.111L65 104.444V127.111Z" fill="#F4F4F4"/>
<path d="M65 127.111C65 127.111 72.5556 127.556 72.5556 119.556C72.5556 116.889 71.3598 114.176 69.4445 111.111L65 104.444V127.111Z" fill="#F4F4F4"/>
<path d="M65 104.444L65.416 104.167C65.3233 104.028 65.1672 103.944 65 103.944C64.8328 103.944 64.6767 104.028 64.584 104.167L65 104.444ZM60.5556 111.111L60.1395 110.834L60.1355 110.84L60.1316 110.846L60.5556 111.111ZM69.4445 111.111L69.8685 110.846L69.8646 110.84L69.8605 110.834L69.4445 111.111ZM56.9445 119.556C56.9445 121.637 57.437 123.208 58.2065 124.385C58.9752 125.56 59.9988 126.31 61.0093 126.786C62.0168 127.26 63.0174 127.465 63.761 127.552C64.1342 127.596 64.4462 127.611 64.667 127.615C64.7774 127.616 64.8653 127.615 64.9269 127.614C64.9577 127.613 64.982 127.612 64.9992 127.612C65.0078 127.611 65.0147 127.611 65.0197 127.611C65.0222 127.611 65.0243 127.611 65.0259 127.61C65.0267 127.61 65.0274 127.61 65.028 127.61C65.0283 127.61 65.0286 127.61 65.0288 127.61C65.0291 127.61 65.0294 127.61 65 127.111C64.9707 126.612 64.9709 126.612 64.9711 126.612C64.9711 126.612 64.9713 126.612 64.9713 126.612C64.9715 126.612 64.9715 126.612 64.9713 126.612C64.9711 126.612 64.9705 126.612 64.9694 126.612C64.9671 126.612 64.9632 126.612 64.9575 126.613C64.9461 126.613 64.9279 126.614 64.9034 126.614C64.8543 126.615 64.7799 126.616 64.6838 126.615C64.4913 126.611 64.2131 126.598 63.8779 126.559C63.2049 126.48 62.3166 126.296 61.4351 125.881C60.5568 125.468 59.6915 124.829 59.0435 123.837C58.3964 122.848 57.9445 121.474 57.9445 119.556H56.9445ZM64.584 104.167L60.1395 110.834L60.9716 111.388L65.416 104.722L64.584 104.167ZM60.1316 110.846C58.2044 113.93 56.9445 116.743 56.9445 119.556H57.9445C57.9445 117.035 59.0761 114.422 60.9796 111.376L60.1316 110.846ZM65.5 127.111V104.444H64.5V127.111H65.5ZM72.0556 119.556C72.0556 121.474 71.6036 122.848 70.9565 123.837C70.3086 124.829 69.4432 125.468 68.5649 125.881C67.6834 126.296 66.7952 126.48 66.1221 126.559C65.7869 126.598 65.5087 126.611 65.3163 126.615C65.2201 126.616 65.1457 126.615 65.0966 126.614C65.0721 126.614 65.0539 126.613 65.0425 126.613C65.0369 126.612 65.0329 126.612 65.0307 126.612C65.0296 126.612 65.0289 126.612 65.0287 126.612C65.0286 126.612 65.0286 126.612 65.0287 126.612C65.0287 126.612 65.0289 126.612 65.0289 126.612C65.0291 126.612 65.0294 126.612 65 127.111C64.9707 127.61 64.9709 127.61 64.9713 127.61C64.9714 127.61 64.9717 127.61 64.972 127.61C64.9726 127.61 64.9733 127.61 64.9741 127.61C64.9757 127.611 64.9778 127.611 64.9803 127.611C64.9854 127.611 64.9922 127.611 65.0008 127.612C65.0181 127.612 65.0423 127.613 65.0731 127.614C65.1347 127.615 65.2226 127.616 65.3331 127.615C65.5538 127.611 65.8659 127.596 66.239 127.552C66.9826 127.465 67.9833 127.26 68.9907 126.786C70.0013 126.31 71.0248 125.56 71.7935 124.385C72.5631 123.208 73.0556 121.637 73.0556 119.556H72.0556ZM64.584 104.722L69.0284 111.388L69.8605 110.834L65.416 104.167L64.584 104.722ZM69.0205 111.376C70.9239 114.422 72.0556 117.035 72.0556 119.556H73.0556C73.0556 116.743 71.7957 113.93 69.8685 110.846L69.0205 111.376Z" fill="#F4F4F4"/>
<rect x="21" y="56" width="78" height="17" fill="#F4F4F4"/>
<circle cx="21.5" cy="51.5" r="21.5" fill="#F4F4F4"/>
<circle cx="55.5" cy="36.5" r="36.5" fill="#F4F4F4"/>
<circle cx="98" cy="43" r="30" fill="#F4F4F4"/>
</svg>
