<svg width="128" height="128" viewBox="0 0 128 128" fill="none" xmlns="http://www.w3.org/2000/svg">
<g clip-path="url(#clip0)">
<rect x="21" y="82" width="78" height="17" fill="#F4F4F4"/>
<circle cx="21.5" cy="77.5" r="21.5" fill="#F4F4F4"/>
<circle cx="55.5" cy="62.5" r="36.5" fill="#F4F4F4"/>
<circle cx="98" cy="69" r="30" fill="#F4F4F4"/>
<path fill-rule="evenodd" clip-rule="evenodd" d="M108.092 36.104C107.381 27.0251 99.7984 19.8795 90.5488 19.8795C84.6736 19.8795 79.471 22.7624 76.2747 27.1924C80.7244 29.8666 84.5571 33.4626 87.5087 37.7162C91.3118 35.9722 95.5423 35 100 35C102.804 35 105.518 35.3846 108.092 36.104Z" fill="#F4F4F4"/>
<path d="M90.0976 12.6506L90.0976 1.80723" stroke="#F4F4F4" stroke-width="4" stroke-linecap="round"/>
<path d="M55.8049 37.0482H66.6341" stroke="#F4F4F4" stroke-width="4" stroke-linecap="round"/>
<path d="M115.366 37.0482H126.195" stroke="#F4F4F4" stroke-width="4" stroke-linecap="round"/>
<path d="M109.049 20.3822L116.268 13.1533" stroke="#F4F4F4" stroke-width="4" stroke-linecap="round"/>
<path d="M109.049 55.1205L116.268 62.3494" stroke="#F4F4F4" stroke-width="4" stroke-linecap="round"/>
<path d="M71.6484 20.3822L64.4289 13.1533" stroke="#F4F4F4" stroke-width="4" stroke-linecap="round"/>
<path d="M71.6484 55.1205L64.4289 62.3494" stroke="#F4F4F4" stroke-width="4" stroke-linecap="round"/>
<path d="M90.0976 73.1928V62.3494" stroke="#F4F4F4" stroke-width="4" stroke-linecap="round"/>
<path d="M64 127.562C64 127.562 56.4444 127.996 56.4444 120.186C56.4444 117.583 57.6402 114.934 59.5556 111.942L64 105.434V127.562Z" fill="#F4F4F4"/>
<path d="M64 127.562C64 127.562 71.5556 127.996 71.5556 120.186C71.5556 117.583 70.3598 114.934 68.4444 111.942L64 105.434V127.562Z" fill="#F4F4F4"/>
<path d="M64 105.434L64.4129 105.152C64.3197 105.015 64.1652 104.934 64 104.934C63.8348 104.934 63.6803 105.015 63.5871 105.152L64 105.434ZM59.5556 111.942L59.1426 111.66L59.1385 111.666L59.1345 111.673L59.5556 111.942ZM68.4444 111.942L68.8655 111.673L68.8615 111.666L68.8574 111.66L68.4444 111.942ZM55.9444 120.186C55.9444 122.222 56.4381 123.76 57.2096 124.912C57.9797 126.061 59.0041 126.793 60.0135 127.257C61.0201 127.72 62.0197 127.919 62.7624 128.005C63.1351 128.047 63.4467 128.062 63.6671 128.065C63.7774 128.067 63.8652 128.066 63.9266 128.065C63.9574 128.064 63.9815 128.063 63.9987 128.063C64.0073 128.062 64.0141 128.062 64.0191 128.062C64.0216 128.062 64.0237 128.062 64.0253 128.062C64.0261 128.061 64.0267 128.061 64.0273 128.061C64.0276 128.061 64.0279 128.061 64.0281 128.061C64.0284 128.061 64.0287 128.061 64 127.562C63.9713 127.063 63.9716 127.063 63.9717 127.063C63.9718 127.063 63.9719 127.063 63.972 127.063C63.9721 127.063 63.9721 127.063 63.972 127.063C63.9717 127.063 63.9711 127.063 63.9699 127.063C63.9677 127.063 63.9637 127.063 63.958 127.064C63.9465 127.064 63.9283 127.065 63.9037 127.065C63.8544 127.066 63.7798 127.067 63.6835 127.066C63.4908 127.062 63.2121 127.05 62.8765 127.011C62.2026 126.934 61.3133 126.754 60.431 126.349C59.5515 125.944 58.687 125.321 58.0404 124.355C57.3952 123.392 56.9444 122.055 56.9444 120.186H55.9444ZM63.5871 105.152L59.1426 111.66L59.9685 112.224L64.4129 105.716L63.5871 105.152ZM59.1345 111.673C57.2073 114.683 55.9444 117.434 55.9444 120.186H56.9444C56.9444 117.732 58.0731 115.185 59.9767 112.212L59.1345 111.673ZM64.5 127.562V105.434H63.5V127.562H64.5ZM71.0556 120.186C71.0556 122.055 70.6048 123.392 69.9596 124.355C69.313 125.321 68.4485 125.944 67.569 126.349C66.6867 126.754 65.7974 126.934 65.1235 127.011C64.7879 127.05 64.5092 127.062 64.3164 127.066C64.2202 127.067 64.1456 127.066 64.0963 127.065C64.0717 127.065 64.0535 127.064 64.042 127.064C64.0363 127.063 64.0323 127.063 64.0301 127.063C64.0289 127.063 64.0282 127.063 64.028 127.063C64.0279 127.063 64.0279 127.063 64.028 127.063C64.0281 127.063 64.0282 127.063 64.0282 127.063C64.0284 127.063 64.0287 127.063 64 127.562C63.9713 128.061 63.9716 128.061 63.9719 128.061C63.9721 128.061 63.9724 128.061 63.9727 128.061C63.9733 128.061 63.9739 128.061 63.9747 128.062C63.9763 128.062 63.9784 128.062 63.9809 128.062C63.9859 128.062 63.9927 128.062 64.0013 128.063C64.0185 128.063 64.0426 128.064 64.0734 128.065C64.1348 128.066 64.2225 128.067 64.3329 128.065C64.5533 128.062 64.8649 128.047 65.2376 128.005C65.9803 127.919 66.9799 127.72 67.9865 127.257C68.9959 126.793 70.0203 126.061 70.7904 124.912C71.5619 123.76 72.0556 122.222 72.0556 120.186H71.0556ZM63.5871 105.716L68.0315 112.224L68.8574 111.66L64.4129 105.152L63.5871 105.716ZM68.0233 112.212C69.9269 115.185 71.0556 117.732 71.0556 120.186H72.0556C72.0556 117.434 70.7927 114.683 68.8655 111.673L68.0233 112.212Z" fill="#F4F4F4"/>
<path d="M38 123.562C38 123.562 30.4445 123.996 30.4445 116.186C30.4445 113.583 31.6403 110.934 33.5556 107.942L38 101.434V123.562Z" fill="#F4F4F4"/>
<path d="M38 123.562C38 123.562 45.5556 123.996 45.5556 116.186C45.5556 113.583 44.3598 110.934 42.4445 107.942L38 101.434V123.562Z" fill="#F4F4F4"/>
<path d="M38 101.434L38.4129 101.152C38.3198 101.015 38.1652 100.934 38 100.934C37.8348 100.934 37.6803 101.015 37.5871 101.152L38 101.434ZM33.5556 107.942L33.1427 107.66L33.1385 107.666L33.1345 107.673L33.5556 107.942ZM42.4445 107.942L42.8656 107.673L42.8616 107.666L42.8574 107.66L42.4445 107.942ZM29.9445 116.186C29.9445 118.222 30.4382 119.76 31.2096 120.912C31.9797 122.061 33.0041 122.793 34.0135 123.257C35.0201 123.72 36.0197 123.919 36.7624 124.005C37.1351 124.047 37.4467 124.062 37.6672 124.065C37.7775 124.067 37.8652 124.066 37.9266 124.065C37.9574 124.064 37.9815 124.063 37.9987 124.063C38.0073 124.062 38.0141 124.062 38.0191 124.062C38.0216 124.062 38.0237 124.062 38.0253 124.062C38.0261 124.061 38.0268 124.061 38.0273 124.061C38.0276 124.061 38.0279 124.061 38.0281 124.061C38.0284 124.061 38.0287 124.061 38 123.562C37.9713 123.063 37.9716 123.063 37.9718 123.063C37.9718 123.063 37.972 123.063 37.972 123.063C37.9721 123.063 37.9721 123.063 37.972 123.063C37.9718 123.063 37.9711 123.063 37.97 123.063C37.9677 123.063 37.9637 123.063 37.958 123.064C37.9465 123.064 37.9283 123.065 37.9037 123.065C37.8544 123.066 37.7799 123.067 37.6836 123.066C37.4908 123.062 37.2121 123.05 36.8765 123.011C36.2026 122.934 35.3133 122.754 34.431 122.349C33.5515 121.944 32.687 121.321 32.0404 120.355C31.3952 119.392 30.9445 118.055 30.9445 116.186H29.9445ZM37.5871 101.152L33.1427 107.66L33.9685 108.224L38.4129 101.716L37.5871 101.152ZM33.1345 107.673C31.2074 110.683 29.9445 113.434 29.9445 116.186H30.9445C30.9445 113.732 32.0731 111.185 33.9767 108.212L33.1345 107.673ZM38.5 123.562V101.434H37.5V123.562H38.5ZM45.0556 116.186C45.0556 118.055 44.6048 119.392 43.9596 120.355C43.313 121.321 42.4485 121.944 41.5691 122.349C40.6868 122.754 39.7975 122.934 39.1235 123.011C38.7879 123.05 38.5092 123.062 38.3165 123.066C38.2202 123.067 38.1456 123.066 38.0963 123.065C38.0717 123.065 38.0535 123.064 38.042 123.064C38.0363 123.063 38.0323 123.063 38.0301 123.063C38.0289 123.063 38.0283 123.063 38.028 123.063C38.0279 123.063 38.0279 123.063 38.028 123.063C38.0281 123.063 38.0282 123.063 38.0283 123.063C38.0285 123.063 38.0287 123.063 38 123.562C37.9713 124.061 37.9716 124.061 37.9719 124.061C37.9721 124.061 37.9724 124.061 37.9727 124.061C37.9733 124.061 37.974 124.061 37.9747 124.062C37.9763 124.062 37.9784 124.062 37.9809 124.062C37.9859 124.062 37.9927 124.062 38.0013 124.063C38.0185 124.063 38.0427 124.064 38.0734 124.065C38.1348 124.066 38.2226 124.067 38.3329 124.065C38.5533 124.062 38.8649 124.047 39.2376 124.005C39.9804 123.919 40.9799 123.72 41.9865 123.257C42.996 122.793 44.0203 122.061 44.7904 120.912C45.5619 119.76 46.0556 118.222 46.0556 116.186H45.0556ZM37.5871 101.716L42.0315 108.224L42.8574 107.66L38.4129 101.152L37.5871 101.716ZM42.0234 108.212C43.9269 111.185 45.0556 113.732 45.0556 116.186H46.0556C46.0556 113.434 44.7927 110.683 42.8656 107.673L42.0234 108.212Z" fill="#F4F4F4"/>
<path d="M90 123.562C90 123.562 82.4444 123.996 82.4444 116.186C82.4444 113.583 83.6402 110.934 85.5556 107.942L90 101.434V123.562Z" fill="#F4F4F4"/>
<path d="M90 123.562C90 123.562 97.5556 123.996 97.5556 116.186C97.5556 113.583 96.3598 110.934 94.4444 107.942L90 101.434V123.562Z" fill="#F4F4F4"/>
<path d="M90 101.434L90.4129 101.152C90.3197 101.015 90.1652 100.934 90 100.934C89.8348 100.934 89.6803 101.015 89.5871 101.152L90 101.434ZM85.5556 107.942L85.1426 107.66L85.1385 107.666L85.1345 107.673L85.5556 107.942ZM94.4444 107.942L94.8655 107.673L94.8615 107.666L94.8574 107.66L94.4444 107.942ZM81.9444 116.186C81.9444 118.222 82.4381 119.76 83.2096 120.912C83.9797 122.061 85.0041 122.793 86.0135 123.257C87.0201 123.72 88.0197 123.919 88.7624 124.005C89.1351 124.047 89.4467 124.062 89.6671 124.065C89.7774 124.067 89.8652 124.066 89.9266 124.065C89.9574 124.064 89.9815 124.063 89.9987 124.063C90.0073 124.062 90.0141 124.062 90.0191 124.062C90.0216 124.062 90.0237 124.062 90.0253 124.062C90.0261 124.061 90.0267 124.061 90.0273 124.061C90.0276 124.061 90.0279 124.061 90.0281 124.061C90.0284 124.061 90.0287 124.061 90 123.562C89.9713 123.063 89.9716 123.063 89.9717 123.063C89.9718 123.063 89.9719 123.063 89.972 123.063C89.9721 123.063 89.9721 123.063 89.972 123.063C89.9717 123.063 89.9711 123.063 89.9699 123.063C89.9677 123.063 89.9637 123.063 89.958 123.064C89.9465 123.064 89.9283 123.065 89.9037 123.065C89.8544 123.066 89.7798 123.067 89.6835 123.066C89.4908 123.062 89.2121 123.05 88.8765 123.011C88.2026 122.934 87.3133 122.754 86.431 122.349C85.5515 121.944 84.687 121.321 84.0404 120.355C83.3952 119.392 82.9444 118.055 82.9444 116.186H81.9444ZM89.5871 101.152L85.1426 107.66L85.9685 108.224L90.4129 101.716L89.5871 101.152ZM85.1345 107.673C83.2073 110.683 81.9444 113.434 81.9444 116.186H82.9444C82.9444 113.732 84.0731 111.185 85.9767 108.212L85.1345 107.673ZM90.5 123.562V101.434H89.5V123.562H90.5ZM97.0556 116.186C97.0556 118.055 96.6048 119.392 95.9596 120.355C95.313 121.321 94.4485 121.944 93.569 122.349C92.6867 122.754 91.7974 122.934 91.1235 123.011C90.7879 123.05 90.5092 123.062 90.3164 123.066C90.2202 123.067 90.1456 123.066 90.0963 123.065C90.0717 123.065 90.0535 123.064 90.042 123.064C90.0363 123.063 90.0323 123.063 90.0301 123.063C90.0289 123.063 90.0282 123.063 90.028 123.063C90.0279 123.063 90.0279 123.063 90.028 123.063C90.0281 123.063 90.0282 123.063 90.0282 123.063C90.0284 123.063 90.0287 123.063 90 123.562C89.9713 124.061 89.9716 124.061 89.9719 124.061C89.9721 124.061 89.9724 124.061 89.9727 124.061C89.9733 124.061 89.9739 124.061 89.9747 124.062C89.9763 124.062 89.9784 124.062 89.9809 124.062C89.9859 124.062 89.9927 124.062 90.0013 124.063C90.0185 124.063 90.0426 124.064 90.0734 124.065C90.1348 124.066 90.2225 124.067 90.3329 124.065C90.5533 124.062 90.8649 124.047 91.2376 124.005C91.9803 123.919 92.9799 123.72 93.9865 123.257C94.9959 122.793 96.0203 122.061 96.7904 120.912C97.5619 119.76 98.0556 118.222 98.0556 116.186H97.0556ZM89.5871 101.716L94.0315 108.224L94.8574 107.66L90.4129 101.152L89.5871 101.716ZM94.0233 108.212C95.9269 111.185 97.0556 113.732 97.0556 116.186H98.0556C98.0556 113.434 96.7927 110.683 94.8655 107.673L94.0233 108.212Z" fill="#F4F4F4"/>
</g>
<defs>
<clipPath id="clip0">
<rect width="128" height="128" fill="white"/>
</clipPath>
</defs>
</svg>
