<svg width="128" height="128" viewBox="0 0 128 128" fill="none" xmlns="http://www.w3.org/2000/svg">
<path fill-rule="evenodd" clip-rule="evenodd" d="M35.6721 87.2857C39.5243 87.2857 43.2339 86.7869 46.7094 85.8639C51.4535 91.3886 59.3089 95 68.1967 95C76.8934 95 84.6015 91.5422 89.3736 86.2177C91.9535 86.9108 94.71 87.2857 97.5737 87.2857C101.316 87.2857 104.875 86.6454 108.096 85.4916C108.595 87.1806 108.863 88.9675 108.863 90.8164C108.863 100.127 102.079 107.866 93.1483 109.433C93.2297 110.092 93.2716 110.762 93.2716 111.442C93.2716 120.46 85.9035 127.771 76.8144 127.771C67.7254 127.771 60.3573 120.46 60.3573 111.442C60.3573 110.824 60.3919 110.214 60.4593 109.613C59.7134 109.686 58.957 109.723 58.1919 109.723C45.6277 109.723 35.4212 99.7072 35.2409 87.2836C35.3845 87.285 35.5282 87.2857 35.6721 87.2857Z" fill="#F4F4F4"/>
<path d="M103.869 29.1429C103.869 45.238 87.8979 58.2857 68.1967 58.2857C48.4955 58.2857 32.5246 45.238 32.5246 29.1429C32.5246 13.0477 48.4955 0 68.1967 0C87.8979 0 103.869 13.0477 103.869 29.1429Z" fill="#F4F4F4"/>
<path d="M71.3443 53.1429C71.3443 69.238 55.3733 82.2857 35.6721 82.2857C15.971 82.2857 0 69.238 0 53.1429C0 37.0477 15.971 24 35.6721 24C55.3733 24 71.3443 37.0477 71.3443 53.1429Z" fill="#F4F4F4"/>
<path d="M123.803 60.8571C123.803 72.6918 112.06 82.2857 97.5738 82.2857C83.0876 82.2857 71.3443 72.6918 71.3443 60.8571C71.3443 49.0225 83.0876 39.4286 97.5738 39.4286C112.06 39.4286 123.803 49.0225 123.803 60.8571Z" fill="#F4F4F4"/>
<path d="M94.4262 68.5714C94.4262 80.4061 82.6829 90 68.1967 90C53.7106 90 41.9672 80.4061 41.9672 68.5714C41.9672 56.7368 53.7106 47.1429 68.1967 47.1429C82.6829 47.1429 94.4262 56.7368 94.4262 68.5714Z" fill="#F4F4F4"/>
<path d="M128 38.1429C128 51.6344 114.613 62.5714 98.0984 62.5714C81.5841 62.5714 68.1967 51.6344 68.1967 38.1429C68.1967 24.6513 81.5841 13.7143 98.0984 13.7143C114.613 13.7143 128 24.6513 128 38.1429Z" fill="#F4F4F4"/>
</svg>
