<svg width="128" height="128" viewBox="0 0 128 128" fill="none" xmlns="http://www.w3.org/2000/svg">
<rect x="21" y="56" width="78" height="17" fill="#F4F4F4"/>
<circle cx="21.5" cy="51.5" r="21.5" fill="#F4F4F4"/>
<circle cx="55.5" cy="36.5" r="36.5" fill="#F4F4F4"/>
<circle cx="98" cy="43" r="30" fill="#F4F4F4"/>
<path d="M40 101.111C40 101.111 32.4444 101.556 32.4444 93.5556C32.4444 90.8889 33.6402 88.1756 35.5556 85.1111L40 78.4444V101.111Z" fill="#F4F4F4"/>
<path d="M40 101.111C40 101.111 47.5556 101.556 47.5556 93.5556C47.5556 90.8889 46.3598 88.1756 44.4444 85.1111L40 78.4444V101.111Z" fill="#F4F4F4"/>
<path d="M40 78.4444L40.416 78.1671C40.3233 78.028 40.1672 77.9444 40 77.9444C39.8328 77.9444 39.6767 78.028 39.584 78.1671L40 78.4444ZM35.5556 85.1111L35.1395 84.8338L35.1355 84.8399L35.1316 84.8461L35.5556 85.1111ZM44.4444 85.1111L44.8684 84.8461L44.8645 84.8399L44.8605 84.8338L44.4444 85.1111ZM31.9444 93.5556C31.9444 95.6369 32.437 97.2078 33.2065 98.3847C33.9752 99.5604 34.9988 100.31 36.0093 100.786C37.0168 101.26 38.0174 101.465 38.761 101.552C39.1342 101.596 39.4462 101.611 39.6669 101.615C39.7774 101.616 39.8653 101.615 39.9269 101.614C39.9577 101.613 39.982 101.612 39.9992 101.612C40.0078 101.611 40.0147 101.611 40.0197 101.611C40.0222 101.611 40.0243 101.611 40.0259 101.61C40.0267 101.61 40.0274 101.61 40.028 101.61C40.0283 101.61 40.0286 101.61 40.0288 101.61C40.0291 101.61 40.0294 101.61 40 101.111C39.9706 100.612 39.9709 100.612 39.9711 100.612C39.9711 100.612 39.9713 100.612 39.9713 100.612C39.9714 100.612 39.9714 100.612 39.9713 100.612C39.9711 100.612 39.9705 100.612 39.9693 100.612C39.9671 100.612 39.9632 100.612 39.9575 100.613C39.9461 100.613 39.9279 100.614 39.9034 100.614C39.8543 100.615 39.7799 100.616 39.6837 100.615C39.4913 100.611 39.2131 100.598 38.8779 100.559C38.2048 100.48 37.3166 100.296 36.4351 99.8809C35.5568 99.4676 34.6915 98.8285 34.0435 97.8375C33.3964 96.8478 32.9444 95.4742 32.9444 93.5556H31.9444ZM39.584 78.1671L35.1395 84.8338L35.9716 85.3885L40.416 78.7218L39.584 78.1671ZM35.1316 84.8461C33.2044 87.9296 31.9444 90.7431 31.9444 93.5556H32.9444C32.9444 91.0347 34.0761 88.4216 35.9796 85.3761L35.1316 84.8461ZM40.5 101.111V78.4444H39.5V101.111H40.5ZM47.0556 93.5556C47.0556 95.4742 46.6036 96.8478 45.9565 97.8375C45.3085 98.8285 44.4432 99.4676 43.5649 99.8809C42.6834 100.296 41.7951 100.48 41.1221 100.559C40.7869 100.598 40.5087 100.611 40.3162 100.615C40.2201 100.616 40.1457 100.615 40.0966 100.614C40.0721 100.614 40.0539 100.613 40.0425 100.613C40.0368 100.612 40.0329 100.612 40.0307 100.612C40.0295 100.612 40.0289 100.612 40.0287 100.612C40.0286 100.612 40.0286 100.612 40.0287 100.612C40.0287 100.612 40.0289 100.612 40.0289 100.612C40.0291 100.612 40.0294 100.612 40 101.111C39.9706 101.61 39.9709 101.61 39.9712 101.61C39.9714 101.61 39.9717 101.61 39.972 101.61C39.9726 101.61 39.9733 101.61 39.9741 101.61C39.9757 101.611 39.9778 101.611 39.9803 101.611C39.9853 101.611 39.9922 101.611 40.0008 101.612C40.018 101.612 40.0423 101.613 40.0731 101.614C40.1347 101.615 40.2226 101.616 40.3331 101.615C40.5538 101.611 40.8658 101.596 41.239 101.552C41.9826 101.465 42.9832 101.26 43.9907 100.786C45.0012 100.31 46.0248 99.5604 46.7935 98.3847C47.563 97.2078 48.0556 95.6369 48.0556 93.5556H47.0556ZM39.584 78.7218L44.0284 85.3885L44.8605 84.8338L40.416 78.1671L39.584 78.7218ZM44.0204 85.3761C45.9239 88.4216 47.0556 91.0347 47.0556 93.5556H48.0556C48.0556 90.7431 46.7956 87.9296 44.8684 84.8461L44.0204 85.3761Z" fill="#F4F4F4"/>
<path d="M64 101.111C64 101.111 56.4444 101.556 56.4444 93.5556C56.4444 90.8889 57.6402 88.1756 59.5556 85.1111L64 78.4444V101.111Z" fill="#F4F4F4"/>
<path d="M64 101.111C64 101.111 71.5556 101.556 71.5556 93.5556C71.5556 90.8889 70.3598 88.1756 68.4444 85.1111L64 78.4444V101.111Z" fill="#F4F4F4"/>
<path d="M64 78.4444L64.416 78.1671C64.3233 78.028 64.1672 77.9444 64 77.9444C63.8328 77.9444 63.6767 78.028 63.584 78.1671L64 78.4444ZM59.5556 85.1111L59.1395 84.8338L59.1355 84.8399L59.1316 84.8461L59.5556 85.1111ZM68.4444 85.1111L68.8684 84.8461L68.8645 84.8399L68.8605 84.8338L68.4444 85.1111ZM55.9444 93.5556C55.9444 95.6369 56.437 97.2078 57.2065 98.3847C57.9752 99.5604 58.9988 100.31 60.0093 100.786C61.0168 101.26 62.0174 101.465 62.761 101.552C63.1342 101.596 63.4462 101.611 63.6669 101.615C63.7774 101.616 63.8653 101.615 63.9269 101.614C63.9577 101.613 63.982 101.612 63.9992 101.612C64.0078 101.611 64.0147 101.611 64.0197 101.611C64.0222 101.611 64.0243 101.611 64.0259 101.61C64.0267 101.61 64.0274 101.61 64.028 101.61C64.0283 101.61 64.0286 101.61 64.0288 101.61C64.0291 101.61 64.0294 101.61 64 101.111C63.9706 100.612 63.9709 100.612 63.9711 100.612C63.9711 100.612 63.9713 100.612 63.9713 100.612C63.9714 100.612 63.9714 100.612 63.9713 100.612C63.9711 100.612 63.9705 100.612 63.9693 100.612C63.9671 100.612 63.9632 100.612 63.9575 100.613C63.9461 100.613 63.9279 100.614 63.9034 100.614C63.8543 100.615 63.7799 100.616 63.6837 100.615C63.4913 100.611 63.2131 100.598 62.8779 100.559C62.2048 100.48 61.3166 100.296 60.4351 99.8809C59.5568 99.4676 58.6915 98.8285 58.0435 97.8375C57.3964 96.8478 56.9444 95.4742 56.9444 93.5556H55.9444ZM63.584 78.1671L59.1395 84.8338L59.9716 85.3885L64.416 78.7218L63.584 78.1671ZM59.1316 84.8461C57.2044 87.9296 55.9444 90.7431 55.9444 93.5556H56.9444C56.9444 91.0347 58.0761 88.4216 59.9796 85.3761L59.1316 84.8461ZM64.5 101.111V78.4444H63.5V101.111H64.5ZM71.0556 93.5556C71.0556 95.4742 70.6036 96.8478 69.9565 97.8375C69.3085 98.8285 68.4432 99.4676 67.5649 99.8809C66.6834 100.296 65.7951 100.48 65.1221 100.559C64.7869 100.598 64.5087 100.611 64.3162 100.615C64.2201 100.616 64.1457 100.615 64.0966 100.614C64.0721 100.614 64.0539 100.613 64.0425 100.613C64.0368 100.612 64.0329 100.612 64.0307 100.612C64.0295 100.612 64.0289 100.612 64.0287 100.612C64.0286 100.612 64.0286 100.612 64.0287 100.612C64.0287 100.612 64.0289 100.612 64.0289 100.612C64.0291 100.612 64.0294 100.612 64 101.111C63.9706 101.61 63.9709 101.61 63.9712 101.61C63.9714 101.61 63.9717 101.61 63.972 101.61C63.9726 101.61 63.9733 101.61 63.9741 101.61C63.9757 101.611 63.9778 101.611 63.9803 101.611C63.9853 101.611 63.9922 101.611 64.0008 101.612C64.018 101.612 64.0423 101.613 64.0731 101.614C64.1347 101.615 64.2226 101.616 64.3331 101.615C64.5538 101.611 64.8658 101.596 65.239 101.552C65.9826 101.465 66.9832 101.26 67.9907 100.786C69.0012 100.31 70.0248 99.5604 70.7935 98.3847C71.563 97.2078 72.0556 95.6369 72.0556 93.5556H71.0556ZM63.584 78.7218L68.0284 85.3885L68.8605 84.8338L64.416 78.1671L63.584 78.7218ZM68.0204 85.3761C69.9239 88.4216 71.0556 91.0347 71.0556 93.5556H72.0556C72.0556 90.7431 70.7956 87.9296 68.8684 84.8461L68.0204 85.3761Z" fill="#F4F4F4"/>
<path d="M88 101.111C88 101.111 80.4444 101.556 80.4444 93.5556C80.4444 90.8889 81.6402 88.1756 83.5556 85.1111L88 78.4444V101.111Z" fill="#F4F4F4"/>
<path d="M88 101.111C88 101.111 95.5556 101.556 95.5556 93.5556C95.5556 90.8889 94.3598 88.1756 92.4444 85.1111L88 78.4444V101.111Z" fill="#F4F4F4"/>
<path d="M88 78.4444L88.416 78.1671C88.3233 78.028 88.1672 77.9444 88 77.9444C87.8328 77.9444 87.6767 78.028 87.584 78.1671L88 78.4444ZM83.5556 85.1111L83.1395 84.8338L83.1355 84.8399L83.1316 84.8461L83.5556 85.1111ZM92.4444 85.1111L92.8684 84.8461L92.8645 84.8399L92.8605 84.8338L92.4444 85.1111ZM79.9444 93.5556C79.9444 95.6369 80.437 97.2078 81.2065 98.3847C81.9752 99.5604 82.9988 100.31 84.0093 100.786C85.0168 101.26 86.0174 101.465 86.761 101.552C87.1342 101.596 87.4462 101.611 87.6669 101.615C87.7774 101.616 87.8653 101.615 87.9269 101.614C87.9577 101.613 87.982 101.612 87.9992 101.612C88.0078 101.611 88.0147 101.611 88.0197 101.611C88.0222 101.611 88.0243 101.611 88.0259 101.61C88.0267 101.61 88.0274 101.61 88.028 101.61C88.0283 101.61 88.0286 101.61 88.0288 101.61C88.0291 101.61 88.0294 101.61 88 101.111C87.9706 100.612 87.9709 100.612 87.9711 100.612C87.9711 100.612 87.9713 100.612 87.9713 100.612C87.9714 100.612 87.9714 100.612 87.9713 100.612C87.9711 100.612 87.9705 100.612 87.9693 100.612C87.9671 100.612 87.9632 100.612 87.9575 100.613C87.9461 100.613 87.9279 100.614 87.9034 100.614C87.8543 100.615 87.7799 100.616 87.6837 100.615C87.4913 100.611 87.2131 100.598 86.8779 100.559C86.2048 100.48 85.3166 100.296 84.4351 99.8809C83.5568 99.4676 82.6915 98.8285 82.0435 97.8375C81.3964 96.8478 80.9444 95.4742 80.9444 93.5556H79.9444ZM87.584 78.1671L83.1395 84.8338L83.9716 85.3885L88.416 78.7218L87.584 78.1671ZM83.1316 84.8461C81.2044 87.9296 79.9444 90.7431 79.9444 93.5556H80.9444C80.9444 91.0347 82.0761 88.4216 83.9796 85.3761L83.1316 84.8461ZM88.5 101.111V78.4444H87.5V101.111H88.5ZM95.0556 93.5556C95.0556 95.4742 94.6036 96.8478 93.9565 97.8375C93.3085 98.8285 92.4432 99.4676 91.5649 99.8809C90.6834 100.296 89.7951 100.48 89.1221 100.559C88.7869 100.598 88.5087 100.611 88.3162 100.615C88.2201 100.616 88.1457 100.615 88.0966 100.614C88.0721 100.614 88.0539 100.613 88.0425 100.613C88.0368 100.612 88.0329 100.612 88.0307 100.612C88.0295 100.612 88.0289 100.612 88.0287 100.612C88.0286 100.612 88.0286 100.612 88.0287 100.612C88.0287 100.612 88.0289 100.612 88.0289 100.612C88.0291 100.612 88.0294 100.612 88 101.111C87.9706 101.61 87.9709 101.61 87.9712 101.61C87.9714 101.61 87.9717 101.61 87.972 101.61C87.9726 101.61 87.9733 101.61 87.9741 101.61C87.9757 101.611 87.9778 101.611 87.9803 101.611C87.9853 101.611 87.9922 101.611 88.0008 101.612C88.018 101.612 88.0423 101.613 88.0731 101.614C88.1347 101.615 88.2226 101.616 88.3331 101.615C88.5538 101.611 88.8658 101.596 89.239 101.552C89.9826 101.465 90.9832 101.26 91.9907 100.786C93.0012 100.31 94.0248 99.5604 94.7935 98.3847C95.563 97.2078 96.0556 95.6369 96.0556 93.5556H95.0556ZM87.584 78.7218L92.0284 85.3885L92.8605 84.8338L88.416 78.1671L87.584 78.7218ZM92.0204 85.3761C93.9239 88.4216 95.0556 91.0347 95.0556 93.5556H96.0556C96.0556 90.7431 94.7956 87.9296 92.8684 84.8461L92.0204 85.3761Z" fill="#F4F4F4"/>
<path d="M52 127.111C52 127.111 44.4444 127.556 44.4444 119.556C44.4444 116.889 45.6402 114.176 47.5556 111.111L52 104.444V127.111Z" fill="#F4F4F4"/>
<path d="M52 127.111C52 127.111 59.5556 127.556 59.5556 119.556C59.5556 116.889 58.3598 114.176 56.4444 111.111L52 104.444V127.111Z" fill="#F4F4F4"/>
<path d="M52 104.444L52.416 104.167C52.3233 104.028 52.1672 103.944 52 103.944C51.8328 103.944 51.6767 104.028 51.584 104.167L52 104.444ZM47.5556 111.111L47.1395 110.834L47.1355 110.84L47.1316 110.846L47.5556 111.111ZM56.4444 111.111L56.8684 110.846L56.8645 110.84L56.8605 110.834L56.4444 111.111ZM43.9444 119.556C43.9444 121.637 44.437 123.208 45.2065 124.385C45.9752 125.56 46.9988 126.31 48.0093 126.786C49.0168 127.26 50.0174 127.465 50.761 127.552C51.1342 127.596 51.4462 127.611 51.6669 127.615C51.7774 127.616 51.8653 127.615 51.9269 127.614C51.9577 127.613 51.982 127.612 51.9992 127.612C52.0078 127.611 52.0147 127.611 52.0197 127.611C52.0222 127.611 52.0243 127.611 52.0259 127.61C52.0267 127.61 52.0274 127.61 52.028 127.61C52.0283 127.61 52.0286 127.61 52.0288 127.61C52.0291 127.61 52.0294 127.61 52 127.111C51.9706 126.612 51.9709 126.612 51.9711 126.612C51.9711 126.612 51.9713 126.612 51.9713 126.612C51.9714 126.612 51.9714 126.612 51.9713 126.612C51.9711 126.612 51.9705 126.612 51.9693 126.612C51.9671 126.612 51.9632 126.612 51.9575 126.613C51.9461 126.613 51.9279 126.614 51.9034 126.614C51.8543 126.615 51.7799 126.616 51.6837 126.615C51.4913 126.611 51.2131 126.598 50.8779 126.559C50.2048 126.48 49.3166 126.296 48.4351 125.881C47.5568 125.468 46.6915 124.829 46.0435 123.837C45.3964 122.848 44.9444 121.474 44.9444 119.556H43.9444ZM51.584 104.167L47.1395 110.834L47.9716 111.388L52.416 104.722L51.584 104.167ZM47.1316 110.846C45.2044 113.93 43.9444 116.743 43.9444 119.556H44.9444C44.9444 117.035 46.0761 114.422 47.9796 111.376L47.1316 110.846ZM52.5 127.111V104.444H51.5V127.111H52.5ZM59.0556 119.556C59.0556 121.474 58.6036 122.848 57.9565 123.837C57.3085 124.829 56.4432 125.468 55.5649 125.881C54.6834 126.296 53.7951 126.48 53.1221 126.559C52.7869 126.598 52.5087 126.611 52.3162 126.615C52.2201 126.616 52.1457 126.615 52.0966 126.614C52.0721 126.614 52.0539 126.613 52.0425 126.613C52.0368 126.612 52.0329 126.612 52.0307 126.612C52.0295 126.612 52.0289 126.612 52.0287 126.612C52.0286 126.612 52.0286 126.612 52.0287 126.612C52.0287 126.612 52.0289 126.612 52.0289 126.612C52.0291 126.612 52.0294 126.612 52 127.111C51.9706 127.61 51.9709 127.61 51.9712 127.61C51.9714 127.61 51.9717 127.61 51.972 127.61C51.9726 127.61 51.9733 127.61 51.9741 127.61C51.9757 127.611 51.9778 127.611 51.9803 127.611C51.9853 127.611 51.9922 127.611 52.0008 127.612C52.018 127.612 52.0423 127.613 52.0731 127.614C52.1347 127.615 52.2226 127.616 52.3331 127.615C52.5538 127.611 52.8658 127.596 53.239 127.552C53.9826 127.465 54.9832 127.26 55.9907 126.786C57.0012 126.31 58.0248 125.56 58.7935 124.385C59.563 123.208 60.0556 121.637 60.0556 119.556H59.0556ZM51.584 104.722L56.0284 111.388L56.8605 110.834L52.416 104.167L51.584 104.722ZM56.0204 111.376C57.9239 114.422 59.0556 117.035 59.0556 119.556H60.0556C60.0556 116.743 58.7956 113.93 56.8684 110.846L56.0204 111.376Z" fill="#F4F4F4"/>
<path d="M76 127.111C76 127.111 68.4444 127.556 68.4444 119.556C68.4444 116.889 69.6402 114.176 71.5556 111.111L76 104.444V127.111Z" fill="#F4F4F4"/>
<path d="M76 127.111C76 127.111 83.5556 127.556 83.5556 119.556C83.5556 116.889 82.3598 114.176 80.4444 111.111L76 104.444V127.111Z" fill="#F4F4F4"/>
<path d="M76 104.444L76.416 104.167C76.3233 104.028 76.1672 103.944 76 103.944C75.8328 103.944 75.6767 104.028 75.584 104.167L76 104.444ZM71.5556 111.111L71.1395 110.834L71.1355 110.84L71.1316 110.846L71.5556 111.111ZM80.4444 111.111L80.8684 110.846L80.8645 110.84L80.8605 110.834L80.4444 111.111ZM67.9444 119.556C67.9444 121.637 68.437 123.208 69.2065 124.385C69.9752 125.56 70.9988 126.31 72.0093 126.786C73.0168 127.26 74.0174 127.465 74.761 127.552C75.1342 127.596 75.4462 127.611 75.6669 127.615C75.7774 127.616 75.8653 127.615 75.9269 127.614C75.9577 127.613 75.982 127.612 75.9992 127.612C76.0078 127.611 76.0147 127.611 76.0197 127.611C76.0222 127.611 76.0243 127.611 76.0259 127.61C76.0267 127.61 76.0274 127.61 76.028 127.61C76.0283 127.61 76.0286 127.61 76.0288 127.61C76.0291 127.61 76.0294 127.61 76 127.111C75.9706 126.612 75.9709 126.612 75.9711 126.612C75.9711 126.612 75.9713 126.612 75.9713 126.612C75.9714 126.612 75.9714 126.612 75.9713 126.612C75.9711 126.612 75.9705 126.612 75.9693 126.612C75.9671 126.612 75.9632 126.612 75.9575 126.613C75.9461 126.613 75.9279 126.614 75.9034 126.614C75.8543 126.615 75.7799 126.616 75.6837 126.615C75.4913 126.611 75.2131 126.598 74.8779 126.559C74.2048 126.48 73.3166 126.296 72.4351 125.881C71.5568 125.468 70.6915 124.829 70.0435 123.837C69.3964 122.848 68.9444 121.474 68.9444 119.556H67.9444ZM75.584 104.167L71.1395 110.834L71.9716 111.388L76.416 104.722L75.584 104.167ZM71.1316 110.846C69.2044 113.93 67.9444 116.743 67.9444 119.556H68.9444C68.9444 117.035 70.0761 114.422 71.9796 111.376L71.1316 110.846ZM76.5 127.111V104.444H75.5V127.111H76.5ZM83.0556 119.556C83.0556 121.474 82.6036 122.848 81.9565 123.837C81.3085 124.829 80.4432 125.468 79.5649 125.881C78.6834 126.296 77.7951 126.48 77.1221 126.559C76.7869 126.598 76.5087 126.611 76.3162 126.615C76.2201 126.616 76.1457 126.615 76.0966 126.614C76.0721 126.614 76.0539 126.613 76.0425 126.613C76.0368 126.612 76.0329 126.612 76.0307 126.612C76.0295 126.612 76.0289 126.612 76.0287 126.612C76.0286 126.612 76.0286 126.612 76.0287 126.612C76.0287 126.612 76.0289 126.612 76.0289 126.612C76.0291 126.612 76.0294 126.612 76 127.111C75.9706 127.61 75.9709 127.61 75.9712 127.61C75.9714 127.61 75.9717 127.61 75.972 127.61C75.9726 127.61 75.9733 127.61 75.9741 127.61C75.9757 127.611 75.9778 127.611 75.9803 127.611C75.9853 127.611 75.9922 127.611 76.0008 127.612C76.018 127.612 76.0423 127.613 76.0731 127.614C76.1347 127.615 76.2226 127.616 76.3331 127.615C76.5538 127.611 76.8658 127.596 77.239 127.552C77.9826 127.465 78.9832 127.26 79.9907 126.786C81.0012 126.31 82.0248 125.56 82.7935 124.385C83.563 123.208 84.0556 121.637 84.0556 119.556H83.0556ZM75.584 104.722L80.0284 111.388L80.8605 110.834L76.416 104.167L75.584 104.722ZM80.0204 111.376C81.9239 114.422 83.0556 117.035 83.0556 119.556H84.0556C84.0556 116.743 82.7956 113.93 80.8684 110.846L80.0204 111.376Z" fill="#F4F4F4"/>
</svg>
