<svg width="128" height="128" viewBox="0 0 128 128" fill="none" xmlns="http://www.w3.org/2000/svg">
<g clip-path="url(#clip0)">
<path fill-rule="evenodd" clip-rule="evenodd" d="M58.1964 69.914C54.4289 69.8342 50.9412 69.7604 50.5 70C50.2639 70.1282 49.2744 71.8815 47.8735 74.3639C46.2008 77.3277 43.9415 81.3309 41.6777 84.8484C42.2097 85.525 42.6053 86.2418 42.9218 86.937C43.2584 87.6764 43.5694 88.5646 43.8335 89.3191L43.8335 89.3192C43.9609 89.683 44.0774 90.0157 44.1806 90.2857C44.5565 91.269 44.9208 91.9547 45.4133 92.4521C45.8634 92.9067 46.5473 93.3299 47.8041 93.5233C48.46 93.6242 49.4377 93.3033 50.9607 91.8764C52.3665 90.5593 53.8149 88.7078 55.4498 86.6177L55.675 86.3299C57.3464 84.1942 59.1958 81.8566 61.1994 80.0299C62.0575 79.2475 62.9901 78.5151 63.9976 77.9218L64 70C62.26 70 60.1891 69.9562 58.1964 69.914ZM63.9961 82.8936C63.9623 82.924 63.9284 82.9547 63.8944 82.9857C62.1792 84.5496 60.5286 86.6183 58.825 88.7951L58.519 89.1864L58.5189 89.1865C56.9636 91.1763 55.3363 93.2582 53.6955 94.7955C51.9998 96.3842 49.79 97.8758 47.1959 97.4767C45.2027 97.1701 43.6991 96.4058 42.571 95.2666C41.4854 94.1703 40.881 92.856 40.4444 91.7143C40.2476 91.1995 40.0952 90.7587 39.9546 90.3517C39.7413 89.7347 39.555 89.1954 39.2813 88.5943C39.2588 88.5448 39.2361 88.4961 39.2132 88.4481C38.8001 89.006 38.3944 89.5268 38 90C35.1477 93.4227 30.9165 97.2798 26.7807 101.05C23.6664 103.889 20.6063 106.678 18.2298 109.196C15.9617 111.599 12.4907 114.69 9.25692 117.571L9.25671 117.571L9.25663 117.571C4.60219 121.716 0.439272 125.424 1.06201 126.01C2.11744 127.003 23.2421 128 63.9827 128C63.9827 127.578 63.9884 108.558 63.9933 92.4135L63.9935 91.5451L63.9961 82.8936ZM64.0383 82.8559C65.7078 81.3651 67.2075 80.5795 68.6174 80.4965C70.0383 80.413 71.2191 80.9616 72.4195 82.0658C73.6436 83.1917 74.7148 84.7304 75.9271 86.4718L75.9272 86.4719L76.0463 86.643C77.2273 88.3388 78.5973 90.2939 80.2757 91.6066C82.0959 93.0303 84.3613 93.7637 87.0965 92.909C88.6515 92.423 89.9612 91.8579 91.05 91.1739C93.8399 94.2916 97.5844 97.705 101.254 101.05C104.368 103.889 107.428 106.678 109.805 109.196C112.073 111.599 115.544 114.69 118.778 117.571C123.432 121.716 127.595 125.424 126.972 126.01C125.917 127.003 104.792 128 64.0518 128C64.0518 127.578 64.046 108.558 64.0411 92.4135L64.0409 91.5451L64.0383 82.8559ZM88.513 88.0269C87.8543 88.3888 87.0063 88.7464 85.9035 89.091C84.6387 89.4863 83.7166 89.2197 82.74 88.4559C81.6215 87.5811 80.5852 86.1612 79.3287 84.357L79.1175 84.0533L79.1174 84.0532C77.9896 82.4305 76.6869 80.5561 75.1274 79.1217C73.4059 77.5384 71.2117 76.337 68.3826 76.5035C66.805 76.5962 65.3568 77.1277 64.0368 77.8988L64.0344 70C65.7744 70 67.8453 69.9562 69.838 69.914C73.6056 69.8342 77.0932 69.7604 77.5344 70C77.7705 70.1282 78.76 71.8815 80.161 74.3639C82.3691 78.2764 85.5993 84.0002 88.513 88.0269Z" fill="#F4F4F4"/>
<path d="M53.8 64.0193C54.2857 64.895 64 65 64 65V55H47C50.4 57.5 53.3143 63.1436 53.8 64.0193Z" fill="#F4F4F4" stroke="#F4F4F4"/>
<path d="M75.2 64.0193C74.7143 64.895 65 65 65 65V55H82C78.6 57.5 75.6857 63.1436 75.2 64.0193Z" fill="#F4F4F4" stroke="#F4F4F4"/>
<ellipse cx="64" cy="27.5" rx="29" ry="27.5" fill="#F4F4F4"/>
<ellipse cx="33" cy="36.9828" rx="19" ry="18.0172" fill="#F4F4F4"/>
<ellipse cx="18" cy="42.6724" rx="13" ry="12.3276" fill="#F4F4F4"/>
<rect x="19" y="41.7241" width="45" height="13.2759" fill="#F4F4F4"/>
<ellipse rx="29" ry="27.5" transform="matrix(-1 0 0 1 64 27.5)" fill="#F4F4F4"/>
<ellipse rx="19" ry="18.0172" transform="matrix(-1 0 0 1 95 36.9828)" fill="#F4F4F4"/>
<ellipse rx="13" ry="12.3276" transform="matrix(-1 0 0 1 110 42.6724)" fill="#F4F4F4"/>
<rect width="45" height="13.2759" transform="matrix(-1 0 0 1 109 41.7241)" fill="#F4F4F4"/>
</g>
<defs>
<clipPath id="clip0">
<rect width="128" height="128" fill="white"/>
</clipPath>
</defs>
</svg>
